<?xml version="1.0" standalone="no"?>
<!DOCTYPE svg PUBLIC "-//W3C//DTD SVG 20010904//EN"
 "http://www.w3.org/TR/2001/REC-SVG-20010904/DTD/svg10.dtd">
<svg version="1.0" xmlns="http://www.w3.org/2000/svg"
 width="300.000000pt" height="300.000000pt" viewBox="0 0 300.000000 300.000000"
 preserveAspectRatio="xMidYMid meet">
<metadata>
Created by potrace 1.14, written by Peter Selinger 2001-2017
</metadata>
<g transform="translate(0.000000,300.000000) scale(0.100000,-0.100000)"
fill="#000000" stroke="none">
<path d="M609 1883 c-32 -16 -57 -39 -76 -69 -30 -47 -38 -52 -46 -29 -10 25
-89 58 -138 58 -100 -2 -170 -78 -171 -187 -1 -71 7 -101 44 -176 39 -77 164
-209 250 -263 60 -38 195 -109 213 -113 7 -1 10 34 10 95 0 122 18 178 101
318 78 130 91 183 67 258 -36 110 -151 159 -254 108z"/>
<path d="M999 1843 c-69 -29 -113 -99 -89 -143 15 -29 24 -25 44 20 21 47 73
100 99 100 26 0 16 -41 -43 -169 -52 -112 -53 -141 -6 -141 27 0 39 12 101
105 26 39 44 61 39 50 -4 -11 -9 -39 -12 -62 -3 -36 0 -46 22 -67 33 -30 56
-25 98 22 66 76 115 231 89 280 -18 33 -29 27 -36 -20 -14 -95 -65 -217 -104
-252 -19 -17 -21 -17 -27 -2 -8 21 11 97 42 165 19 42 22 56 12 63 -25 16 -35
8 -81 -64 -46 -72 -127 -184 -127 -175 0 3 18 44 41 89 22 46 43 104 46 129 5
43 3 48 -22 65 -36 24 -45 24 -86 7z"/>
<path d="M1457 1843 c-15 -18 -21 -36 -18 -60 2 -22 27 -14 41 12 7 14 17 25
22 25 15 0 8 28 -8 34 -21 8 -19 9 -37 -11z"/>
<path d="M1567 1830 c-14 -16 -46 -71 -72 -122 -48 -97 -79 -138 -102 -138
-23 0 6 83 46 133 13 16 13 19 1 28 -28 17 -44 4 -77 -59 -40 -77 -42 -115 -9
-137 23 -15 27 -15 50 0 14 10 26 21 26 26 0 5 5 9 10 9 6 0 10 -7 10 -15 0
-18 36 -38 53 -29 6 4 22 16 34 26 21 19 21 19 27 0 4 -10 17 -24 30 -30 20
-9 27 -7 50 17 14 15 26 30 26 34 0 3 8 20 19 37 l18 31 -1 -41 c-1 -45 23
-74 51 -63 21 8 103 115 96 125 -3 5 -21 -9 -40 -31 -34 -40 -63 -53 -63 -28
0 18 57 134 90 184 34 50 36 59 14 67 -19 7 -55 -30 -79 -84 -20 -44 -23 -46
-50 -26 -37 27 -87 -6 -143 -94 -34 -53 -65 -90 -77 -90 -25 0 47 176 101 247
24 31 24 32 5 42 -16 9 -24 6 -44 -19z m159 -125 c4 -9 -2 -23 -12 -33 -11 -9
-35 -38 -54 -63 -38 -51 -53 -55 -41 -11 14 46 39 90 63 106 28 20 37 20 44 1z"/>
<path d="M2037 1830 c-63 -74 -133 -230 -117 -260 6 -11 3 -20 -11 -28 -10 -7
-19 -19 -19 -27 0 -11 5 -12 25 -5 38 14 74 20 138 21 31 1 57 3 57 6 0 2 -5
13 -11 25 -10 18 -17 19 -66 14 -30 -3 -59 -9 -65 -12 -25 -16 42 137 96 217
27 40 33 56 24 66 -15 19 -23 16 -51 -17z"/>
<path d="M2256 1838 c-38 -54 -7 -86 34 -37 26 31 27 35 12 47 -22 17 -29 15
-46 -10z"/>
<path d="M2339 1765 c-23 -36 -48 -65 -57 -65 -10 0 -13 -7 -9 -21 6 -24 -23
-75 -59 -102 -24 -18 -24 -18 -24 7 0 13 14 50 30 82 22 40 28 60 20 68 -34
34 -122 -122 -100 -178 13 -35 39 -40 73 -16 l29 22 -6 -38 c-4 -20 -4 -45 -1
-56 8 -23 39 -40 60 -32 34 14 71 120 67 196 -1 33 1 37 26 40 35 4 35 22 0
26 -16 2 -28 6 -28 8 0 12 24 51 47 76 27 28 24 48 -7 48 -12 0 -34 -23 -61
-65z m-3 -152 c-8 -62 -35 -143 -47 -143 -20 0 -8 63 32 168 14 37 22 25 15
-25z"/>
<path d="M2478 1728 c-119 -110 -94 -248 35 -194 51 21 143 136 110 136 -5 0
-16 -12 -27 -28 -29 -43 -74 -74 -108 -76 -37 -1 -49 19 -15 28 30 7 96 73
104 105 15 61 -45 79 -99 29z m72 -16 c0 -19 -78 -107 -87 -98 -8 8 45 94 65
105 22 14 22 14 22 -7z"/>
<path d="M988 1440 c-46 -25 -95 -84 -100 -122 -6 -35 19 -71 65 -93 78 -38
89 -75 22 -75 -40 0 -68 12 -102 42 -20 18 -22 19 -31 2 -34 -61 81 -112 166
-74 80 36 78 85 -6 127 -33 16 -58 36 -60 46 -5 27 43 91 86 113 80 44 107 9
43 -55 -23 -23 -41 -43 -41 -46 0 -3 12 -5 26 -5 32 0 94 59 94 89 0 11 -12
32 -27 46 -34 31 -82 32 -135 5z"/>
<path d="M1406 1438 c-19 -27 -21 -68 -3 -68 19 0 60 59 53 76 -8 21 -33 17
-50 -8z"/>
<path d="M1634 1433 c-32 -35 -99 -157 -115 -210 -10 -34 -9 -45 1 -58 7 -9 8
-15 2 -15 -13 0 -42 -28 -42 -41 0 -6 7 -6 18 -1 21 12 111 25 164 24 31 -1
38 3 38 18 0 10 -9 21 -20 25 -19 6 -97 -2 -113 -12 -15 -9 4 59 31 112 13 28
40 74 58 103 38 59 40 67 18 76 -9 3 -25 -5 -40 -21z"/>
<path d="M2308 1417 c-14 -23 -41 -71 -58 -107 -35 -69 -85 -130 -108 -130
-18 0 -8 31 29 92 25 43 27 49 13 63 -33 33 -76 7 -142 -84 -41 -56 -41 -44
-1 27 24 43 28 57 17 63 -7 5 -16 9 -20 9 -9 0 -58 -75 -58 -88 0 -4 -14 -25
-31 -46 -37 -43 -58 -32 -32 17 13 25 13 31 1 44 -21 20 -41 8 -84 -52 -22
-30 -42 -55 -46 -55 -32 -1 38 131 79 149 23 11 29 10 39 -3 15 -21 24 -20 24
4 0 10 -9 24 -19 30 -50 26 -100 -1 -151 -80 -40 -62 -43 -115 -10 -142 22
-17 24 -18 42 -2 10 10 32 40 48 68 22 36 29 43 24 24 -8 -36 2 -74 20 -81 8
-3 27 4 42 16 16 12 25 16 21 10 -7 -12 17 -43 34 -43 5 0 13 8 16 18 18 48
118 180 129 169 3 -2 -9 -29 -25 -60 -33 -62 -31 -93 4 -109 17 -8 29 -6 49 7
14 10 26 21 26 26 0 5 5 9 11 9 5 0 7 -4 4 -10 -9 -14 13 -50 30 -50 8 0 15 6
15 13 0 8 8 29 17 48 l17 34 9 -35 c14 -55 53 -66 101 -29 15 12 28 20 29 18
20 -37 28 -44 48 -44 17 0 32 13 55 48 41 62 40 62 36 17 -3 -30 0 -40 15 -49
26 -13 53 5 94 65 42 62 32 77 -15 20 -20 -25 -41 -44 -46 -41 -10 6 -2 44 13
63 13 17 -13 45 -35 37 -8 -3 -35 -33 -59 -67 -52 -71 -65 -56 -24 28 31 64
80 98 100 70 16 -21 25 -20 25 4 0 10 -9 24 -19 30 -50 26 -101 -1 -152 -82
-43 -69 -76 -100 -103 -96 -24 3 -36 38 -13 38 22 0 73 55 81 86 9 33 -16 64
-45 57 -11 -3 -38 -26 -60 -52 l-41 -46 33 60 c18 33 43 74 56 92 23 31 23 32
4 43 -26 13 -22 16 -53 -33z m62 -111 c0 -17 -54 -76 -69 -76 -18 0 -13 13 20
53 32 39 49 47 49 23z"/>
<path d="M1178 1373 c-9 -10 -13 -24 -11 -31 3 -7 -2 -24 -11 -37 -9 -13 -16
-29 -16 -35 0 -20 18 -9 32 19 10 21 18 27 27 21 11 -6 8 -20 -17 -68 -31 -60
-35 -98 -10 -114 24 -15 50 -8 80 22 29 30 45 39 33 20 -6 -10 29 -50 44 -50
25 0 121 111 121 141 0 20 -16 6 -50 -41 -19 -27 -41 -52 -47 -54 -22 -9 -14
38 17 100 19 39 26 62 19 69 -15 15 -41 -6 -76 -66 -34 -59 -89 -117 -100
-105 -4 3 5 32 20 62 28 56 29 94 2 94 -21 0 -28 19 -14 36 10 13 10 17 -2 25
-20 12 -24 11 -41 -8z"/>
</g>
</svg>
